<svg width="214" height="225" viewBox="0 0 214 225" fill="none" xmlns="http://www.w3.org/2000/svg">
<path d="M0 15C0 6.71573 6.71573 0 15 0H43C51.2843 0 58 6.71573 58 15V210C58 218.284 51.2843 225 43 225H15C6.71573 225 0 218.284 0 210V15Z" fill="#635CCC"/>
<path d="M78 15C78 6.71573 84.7157 0 93 0H121C129.284 0 136 6.71573 136 15V210C136 218.284 129.284 225 121 225H93C84.7157 225 78 218.284 78 210V15Z" fill="#5657A7"/>
<path d="M156 15C156 6.71573 162.716 0 171 0H199C207.284 0 214 6.71573 214 15V210C214 218.284 207.284 225 199 225H171C162.716 225 156 218.284 156 210V15Z" fill="#48447F"/>
</svg>
